# xmcd CD database file
#
# Track frame offsets:
#	150
#	22856
#	59604
#	80311
#	107907
#	133085
#	157408
#	179666
#	220813
#	237853
#	268388
#
# Disc length: 3859 seconds
#
# Revision: 0
# Processed by: cddbd v1.5.2PL0 Copyright (c) Steve Scherf et al.
# Submitted via: CDex 1.51
#
DISCID=a40f110b
DTITLE=Andalbluses - Old Blues Biscuits
DYEAR=2018
DGENRE=Blues
TTITLE0=Funk'on Nata
TTITLE1=Love me in the Morning
TTITLE2=Let me Leave You
TTITLE3=You've Got You movin' on me
TTITLE4=Blues for L.
TTITLE5=One Way Love
TTITLE6=I'm Ready
TTITLE7=Looking for a Woman
TTITLE8=Annie's Shine
TTITLE9=Shake Your Love Fruits
TTITLE10=Church on Sunday
EXTD=YEAR: 2018
EXTT0=
EXTT1=
EXTT2=
EXTT3=
EXTT4=
EXTT5=
EXTT6=
EXTT7=
EXTT8=
EXTT9=
EXTT10=
PLAYORDER=
